<?xml version="1.0" encoding="utf-8"?>
<!-- Generator: Adobe Illustrator 21.0.0, SVG Export Plug-In . SVG Version: 6.00 Build 0)  -->
<svg version="1.1" id="Layer_1" xmlns="http://www.w3.org/2000/svg" xmlns:xlink="http://www.w3.org/1999/xlink" x="0px" y="0px" fill="#555"
	 viewBox="0 0 35.8 27.4" style="enable-background:new 0 0 35.8 27.4;" xml:space="preserve">
<g>
	<g>
		<path d="M18.2,17.7c-1,0.3-1.9,0.4-2.8,0.4c-1.5,0-2.8-0.3-4-1c-1.5-0.9-2.3-2-2.3-3.4c0-1.4,0.8-2.5,2.3-3.4c1.2-0.7,2.5-1,4-1
			c0.8,0,1.7,0.1,2.8,0.4v2.6c-0.3-0.3-0.6-0.4-0.9-0.6c-0.6-0.2-1.1-0.4-1.8-0.4c-0.8,0-1.5,0.2-2.1,0.5c-0.7,0.4-1.1,1-1.1,1.8
			c0,0.7,0.4,1.3,1.1,1.8c0.6,0.3,1.3,0.5,2.1,0.5c0.6,0,1.2-0.1,1.8-0.4c0.3-0.1,0.6-0.3,0.9-0.6V17.7z"/>
		<path d="M32.3,17.9H29l-0.8-1.5H24l-0.8,1.5h-3.3l4.6-8.4h3.4L32.3,17.9z M27.4,14.7l-1.3-2.7l-1.3,2.7H27.4z"/>
	</g>
	<path d="M27.9,6.3h-3c-0.3-0.4-0.6-0.9-1-1.2L23,5.9c-0.4-0.4-0.8-0.8-1.2-1.2l0.8-0.9c-1.1-1-2.4-1.8-3.7-2.3l-0.5,1.1
		c-0.5-0.2-1.1-0.4-1.6-0.5l0.3-1.2c-0.7-0.2-1.4-0.3-2.2-0.3c-0.7-0.1-1.5-0.1-2.2,0l0.1,1.2c-0.6,0.1-1.1,0.1-1.6,0.3l-0.3-1.2
		C10.2,1,9.5,1.2,8.8,1.5l0.5,1.1c-0.5,0.2-1,0.5-1.5,0.8l-0.6-1C5.9,3.1,4.8,4.1,3.8,5.2L4.8,6c-0.4,0.4-0.7,0.9-1,1.4l-1-0.6
		C2,8,1.4,9.3,1.1,10.8L2.2,11C2.1,11.6,2,12.1,2,12.7l-1.2-0.1c0,0.4,0,0.7,0,1.1l0,0.6c0,0.2,0,0.4,0,0.6L2,14.7
		c0,0.6,0.1,1.1,0.3,1.7l-1.2,0.3c0.3,1.4,0.9,2.8,1.7,4.1l1-0.6c0.3,0.5,0.6,0.9,1,1.4l-0.9,0.8c0.9,1.1,2.1,2.1,3.4,2.8l0.6-1
		c0.5,0.3,1,0.5,1.5,0.8l-0.5,1.1c0.7,0.3,1.4,0.5,2.1,0.7l0.3-1.2c0.5,0.1,1.1,0.2,1.6,0.3l-0.1,1.2c0.7,0.1,1.5,0.1,2.2,0
		c0.7-0.1,1.5-0.2,2.2-0.3l-0.3-1.2c0.6-0.1,1.1-0.3,1.6-0.5l0.5,1.1c1.4-0.6,2.6-1.3,3.7-2.3l-0.8-0.9c0.4-0.4,0.8-0.8,1.2-1.2
		l0.9,0.8c0.3-0.3,0.6-0.7,0.8-1.1h3.1c4.1,0,7.5-3.3,7.5-7.5S32,6.3,27.9,6.3z M7.2,13.8c0-3.7,3-6.7,6.7-6.7h14.1
		c3.7,0,6.7,3,6.7,6.7c0,3.7-3,6.7-6.7,6.7H13.9C10.2,20.4,7.2,17.4,7.2,13.8z M13.9,22.4c-4.8,0-8.7-3.9-8.7-8.7
		c0-4.8,3.9-8.7,8.7-8.7c1.6,0,3.1,0.4,4.4,1.2h-4.4c-4.1,0-7.5,3.3-7.5,7.5s3.3,7.5,7.5,7.5h4.4C17,22,15.5,22.4,13.9,22.4z"/>
</g>
</svg>
