<svg xmlns="http://www.w3.org/2000/svg" viewBox="0 0 260.14 200"><defs><style>.cls-1{fill:#666;}</style></defs><title>Asset 1</title><g id="Layer_2" data-name="Layer 2"><g id="Layer_1-2" data-name="Layer 1"><path class="cls-1" d="M180.55,38.36h60v-27A11.4,11.4,0,0,0,229.16,0H11.37A11.4,11.4,0,0,0,0,11.37V131.2a11.4,11.4,0,0,0,11.37,11.37H165V53.93A15.59,15.59,0,0,1,180.55,38.36Z"/><path class="cls-1" d="M248.77,42.56H180.55a11.4,11.4,0,0,0-11.37,11.37v134.7A11.4,11.4,0,0,0,180.55,200h68.22a11.4,11.4,0,0,0,11.37-11.37V53.93A11.4,11.4,0,0,0,248.77,42.56ZM214.66,190.21a4.75,4.75,0,1,1,4.75-4.75A4.75,4.75,0,0,1,214.66,190.21Z"/></g></g></svg>