<?xml version="1.0" encoding="utf-8"?>
<!-- Generator: Adobe Illustrator 21.0.0, SVG Export Plug-In . SVG Version: 6.00 Build 0)  -->
<svg version="1.2" baseProfile="tiny" id="Layer_1" xmlns="http://www.w3.org/2000/svg" xmlns:xlink="http://www.w3.org/1999/xlink"
	 x="0px" y="0px" viewBox="0 0 640 480" xml:space="preserve">
<polygon fill="#3A3E8C" points="192.7,165 145.3,165 121.6,206 145.3,247.1 192.7,247.1 216.4,206 "/>
<g>
	<path fill="#FFFFFF" d="M160.2,211.8l-5,13.2h-6.5l16.5-42.1h7.6l16.6,42.1h-6.7l-5.2-13.2H160.2z M176.2,207.5l-4.8-12.1
		c-1.1-2.7-1.8-5.2-2.5-7.7h-0.1c-0.7,2.5-1.5,5.1-2.5,7.6l-4.8,12.2H176.2z"/>
</g>
<rect x="165" y="203.8" fill="none" width="8" height="0.4"/>
<g>
	<path fill="#883F39" d="M242.8,174.9h1.8c2.3,5.1,5.6,13.1,9.9,23.9c2,5,3.3,8,4.1,9.1c0.7,1.1,1.9,1.7,3.5,1.9
		c0.5,0.1,0.8,0.3,0.8,0.7c0,0.5-0.3,0.8-1,0.8c-0.4,0-1.3-0.1-2.9-0.2c-1.8-0.2-3.4-0.2-4.7-0.2c-1.2,0-2.8,0.1-4.8,0.2
		c-1.5,0.1-2.4,0.2-2.9,0.2c-0.8,0-1.2-0.3-1.2-0.8c0-0.4,0.3-0.6,0.9-0.7c2.2-0.2,3.3-1.1,3.3-2.6c0-0.7-0.3-2-1-3.9
		c-0.6-1.9-1.3-3.6-2-5.2c-1.2,0-2.1,0-2.7,0c-3.6,0-6.4,0-8.3,0c-1.5,4.2-2.3,7-2.3,8.3c0,1,0.4,1.7,1.1,2.3
		c0.8,0.5,1.6,0.9,2.5,0.9c0.7,0.1,1,0.3,1,0.8c0,0.5-0.4,0.7-1.1,0.7c-0.3,0-1,0-2.2-0.1c-1.6-0.1-2.7-0.2-3.4-0.2
		c-1.4,0-2.7,0.1-4,0.3c-0.3,0.1-0.6,0.1-0.8,0.1c-0.7,0-1-0.3-1-0.8c0-0.4,0.2-0.6,0.6-0.8c1.1-0.3,1.9-0.7,2.5-1.1
		c0.6-0.4,1.3-1.3,2-2.5c0.7-1.3,1.5-3.3,2.5-6C235.2,193.8,238.5,185.4,242.8,174.9z M241,184.1l-4.6,11.9l9.4-0.1
		c-0.5-1.4-1.3-3.3-2.3-5.7C242.4,187.6,241.5,185.5,241,184.1z"/>
	<path fill="#883F39" d="M294.9,176l1.4,8l0.1,0.4c0,0.5-0.2,0.8-0.5,0.8c-0.2,0-0.5-0.2-0.7-0.6c-1.4-2.1-2.9-3.8-4.6-5
		c-1.7-1.2-4.5-1.8-8.3-1.8c-2.6,0-4.1,0.3-4.5,0.8c-0.3,0.6-0.5,4.9-0.5,13.1c2,0,3.5-0.1,4.5-0.4c1.1-0.3,1.9-0.8,2.4-1.4
		c0.6-0.7,1.1-2,1.6-3.8c0.1-0.5,0.3-0.7,0.6-0.7c0.5,0,0.8,0.3,0.8,1l-0.2,8.5c-0.1,2.9-0.1,4.5-0.2,4.7c-0.1,0.2-0.3,0.3-0.6,0.3
		c-0.4,0-0.7-0.4-0.8-1.1c-0.2-1.7-0.8-3-1.7-3.9c-0.9-1-3.1-1.4-6.5-1.4l0,9.9c0,1.9,0.1,3.3,0.4,4.1c0.3,0.8,0.7,1.4,1.2,1.7
		c0.5,0.3,1.4,0.5,2.6,0.5c0.9,0,1.4,0.1,1.6,0.2c0.2,0.1,0.3,0.3,0.3,0.7c0,0.6-0.4,0.9-1.2,0.9c-0.7,0-2.1-0.1-4.1-0.2
		c-1.7-0.1-3-0.2-3.9-0.2l-8.4,0.3c-0.9,0-1.3-0.3-1.3-0.8c0-0.5,0.5-0.7,1.6-0.8c1.8-0.1,2.9-0.9,3.2-2.4c0.4-1.5,0.5-7.1,0.5-16.8
		c0-6.3-0.2-10-0.7-11.2c-0.5-1.2-1.6-1.8-3.3-1.8l-0.7,0c-0.6,0-1-0.3-1-0.8c0-0.5,0.5-0.7,1.5-0.7H294.9z"/>
	<path fill="#883F39" d="M298.9,175.6c9.2,0.2,16,0.4,20.4,0.4c3.4,0,7-0.1,11.1-0.3c1.4-0.1,2.6-0.1,3.5-0.1c0.4,0,0.9,0,1.8,0
		c0.1,0.7,0.3,2.2,0.5,4.5l0.4,4.2c0,0.7-0.3,1-0.9,1c-0.4,0-0.9-0.4-1.3-1.3c-0.7-1.4-1.5-2.7-2.6-3.7c-1.1-1-2.3-1.7-3.7-2
		c-1.4-0.3-3.7-0.5-6.9-0.5c-0.3,2.7-0.4,6.1-0.4,10.2c0,4.2,0.1,8.2,0.2,12.1c0.2,3.9,0.4,6.2,0.6,7s0.6,1.4,1.2,1.8
		c0.5,0.4,1.8,0.6,3.9,0.8c0.7,0.1,1,0.3,1,0.7c0,0.5-0.3,0.7-0.9,0.7l-0.7,0l-5.5-0.1c-4.3,0-6.9,0-7.8,0.1l-3.4,0.1
		c-0.3,0-0.8,0-1.7-0.1c-0.4-0.1-0.6-0.3-0.6-0.7c0-0.5,0.3-0.8,1-0.8c1.6,0,2.8-0.3,3.6-1c0.8-0.7,1.3-1.7,1.5-3.1
		c0.2-1.4,0.3-4.5,0.3-9.3c0-7.5-0.2-13.7-0.7-18.4c-2.9,0-5,0.1-6.3,0.4c-1.3,0.2-2.6,0.9-3.8,2c-1.2,1.1-2.2,2.5-3,4.2
		c-0.3,0.7-0.6,1-1,1c-0.6,0-0.9-0.3-0.9-0.8c0-0.2,0.1-1.3,0.3-3.5C298.3,178.8,298.6,177,298.9,175.6z"/>
	<path fill="#883F39" d="M352.1,174.9h1.8c2.3,5.1,5.6,13.1,9.9,23.9c2,5,3.3,8,4.1,9.1c0.7,1.1,1.9,1.7,3.5,1.9
		c0.5,0.1,0.8,0.3,0.8,0.7c0,0.5-0.3,0.8-1,0.8c-0.4,0-1.3-0.1-2.9-0.2c-1.8-0.2-3.4-0.2-4.7-0.2c-1.2,0-2.8,0.1-4.8,0.2
		c-1.5,0.1-2.4,0.2-2.9,0.2c-0.8,0-1.2-0.3-1.2-0.8c0-0.4,0.3-0.6,0.9-0.7c2.2-0.2,3.3-1.1,3.3-2.6c0-0.7-0.3-2-1-3.9
		c-0.6-1.9-1.3-3.6-2-5.2c-1.2,0-2.1,0-2.7,0c-3.6,0-6.4,0-8.3,0c-1.5,4.2-2.3,7-2.3,8.3c0,1,0.4,1.7,1.1,2.3
		c0.8,0.5,1.6,0.9,2.5,0.9c0.7,0.1,1,0.3,1,0.8c0,0.5-0.4,0.7-1.1,0.7c-0.3,0-1,0-2.2-0.1c-1.6-0.1-2.7-0.2-3.4-0.2
		c-1.4,0-2.7,0.1-4,0.3c-0.3,0.1-0.6,0.1-0.8,0.1c-0.7,0-1-0.3-1-0.8c0-0.4,0.2-0.6,0.6-0.8c1.1-0.3,1.9-0.7,2.5-1.1
		c0.6-0.4,1.3-1.3,2-2.5c0.7-1.3,1.5-3.3,2.5-6C344.5,193.8,347.8,185.4,352.1,174.9z M350.3,184.1l-4.6,11.9l9.4-0.1
		c-0.5-1.4-1.3-3.3-2.3-5.7C351.6,187.6,350.8,185.5,350.3,184.1z"/>
	<path fill="#883F39" d="M393.7,191.9c3.7,0.8,6.4,2,8.2,3.6c1.8,1.6,2.7,3.6,2.7,6.1c0,2-0.7,3.9-2,5.5c-1.3,1.6-3,2.7-4.9,3.3
		s-4.8,0.8-8.5,0.8c-0.9,0-2.3,0-4.3-0.1c-1.6-0.1-2.8-0.1-3.8-0.1c-1.2,0-2.8,0.1-4.9,0.2c-0.8,0.1-1.4,0.1-1.8,0.1
		c-0.7,0-1-0.3-1-0.8c0-0.4,0.3-0.6,0.8-0.7c1.1-0.1,1.9-0.3,2.4-0.6c0.5-0.2,0.9-0.6,1.2-1.2c0.3-0.6,0.5-1.5,0.5-2.8l0.2-12.4
		c0-3.9,0-6.9-0.1-9.3c-0.1-2.3-0.2-3.8-0.5-4.5c-0.2-0.7-0.5-1.1-0.9-1.4c-0.4-0.3-1-0.4-1.8-0.5c-0.7,0-1.2-0.1-1.4-0.2
		c-0.2-0.1-0.3-0.3-0.3-0.6c0-0.4,0.2-0.6,0.6-0.7c0.4-0.1,1.6-0.1,3.5-0.1c3.5,0,6.9-0.1,9.9-0.4c1.8-0.1,3.3-0.2,4.4-0.2
		c3.3,0,5.9,0.7,7.8,2.2c2,1.4,2.9,3.4,2.9,5.8C403,187.1,399.9,190.1,393.7,191.9z M386.4,191.5c6.1,0,9.1-2.6,9.1-7.9
		c0-2.3-0.5-4-1.6-5.2c-1.1-1.1-2.3-1.7-3.8-1.7c-1,0-2.3,0.2-3.8,0.7c-0.1,1.8-0.2,3.6-0.2,5.6
		C386.1,184.7,386.2,187.5,386.4,191.5z M386.4,193.6c-0.1,3.7-0.2,6.9-0.2,9.3c0,3.3,0.1,5.2,0.4,5.7c0.3,0.5,1.1,0.7,2.5,0.7
		c2.6,0,4.5-0.7,5.7-2c1.3-1.4,1.9-3.2,1.9-5.6c0-2.4-0.7-4.3-2-5.9c-1.3-1.5-3.3-2.3-6-2.3C388.2,193.5,387.4,193.5,386.4,193.6z"
		/>
</g>
<g>
	<path fill="#883F39" d="M236.7,219.6h1.5l3.2,11.2l2.8-11.2h2.3l-3.8,14.3h-2.2l-2.9-10l-3,10h-2.2l-3.8-14.3h2.3l2.8,11.2
		L236.7,219.6z"/>
	<path fill="#883F39" d="M250.6,234c0,0-0.4-0.2-1.1-0.5c-0.7-0.4-1.3-0.9-1.7-1.6c-0.4-0.7-0.6-1.5-0.6-2.5v-1.1
		c0-1,0.2-1.9,0.6-2.6c0.4-0.7,0.9-1.3,1.6-1.6c0.7-0.4,1.6-0.6,2.5-0.6c0.9,0,1.7,0.2,2.4,0.6c0.7,0.4,1.2,1,1.5,1.8
		c0.3,0.8,0.5,1.8,0.5,2.9v0.7h-7.6V228h5.5c-0.1-0.8-0.3-1.5-0.7-1.9c-0.4-0.5-1-0.7-1.6-0.7c-0.8,0-1.5,0.2-1.9,0.7
		c-0.5,0.5-0.7,1.2-0.7,2.1v1.3c0,0.8,0.2,1.5,0.7,1.9c0.5,0.5,1.2,0.7,2.1,0.7c0.4,0,0.9-0.1,1.3-0.2c0.4-0.2,0.8-0.4,1.2-0.7
		l1.4,1.3c-0.6,0.5-1.2,0.9-1.9,1.1c-0.7,0.3-1.4,0.4-2.1,0.4C251.1,234,250.6,234,250.6,234z"/>
	<path fill="#883F39" d="M259.4,219.6h2.2v14.3h-2.2V219.6z M262.6,233.6c-0.5-0.3-0.9-0.7-1.1-1.3l0.2-2.1c0,0.4,0.1,0.8,0.3,1.1
		c0.2,0.3,0.4,0.5,0.8,0.7c0.3,0.2,0.7,0.2,1.2,0.2c0.7,0,1.3-0.2,1.7-0.6c0.4-0.4,0.6-1,0.6-1.7v-2.2c0-0.7-0.2-1.3-0.6-1.7
		c-0.4-0.4-1-0.6-1.7-0.6c-0.5,0-0.9,0.1-1.2,0.2c-0.3,0.2-0.6,0.4-0.8,0.7c-0.2,0.3-0.3,0.7-0.3,1.1l-0.2-2
		c0.3-0.6,0.8-1.1,1.3-1.4c0.5-0.3,1.2-0.5,1.8-0.5c0.8,0,1.5,0.2,2,0.5c0.6,0.3,1,0.8,1.3,1.4c0.3,0.6,0.4,1.4,0.4,2.2v2.2
		c0,0.9-0.2,1.6-0.5,2.2c-0.3,0.6-0.7,1.1-1.3,1.4c-0.6,0.3-1.3,0.5-2.1,0.5C263.8,234,263.1,233.9,262.6,233.6z"/>
	<path fill="#883F39" d="M277.6,219.6h2.2v14.3h-2.2V219.6z M279.1,232h3.6c1.2,0,2.1-0.3,2.7-0.8c0.6-0.5,1-1.3,1-2.3v-4.2
		c0-1-0.3-1.8-1-2.3c-0.6-0.5-1.5-0.8-2.7-0.8h-3.6v-1.9h3.5c1.3,0,2.3,0.2,3.2,0.6c0.9,0.4,1.6,1,2,1.7c0.5,0.8,0.7,1.7,0.7,2.8v4
		c0,1.1-0.2,2-0.7,2.8c-0.5,0.8-1.2,1.3-2,1.7c-0.9,0.4-2,0.6-3.2,0.6h-3.5V232z"/>
	<path fill="#883F39" d="M294.9,234c0,0-0.4-0.2-1.1-0.5c-0.7-0.4-1.3-0.9-1.7-1.6c-0.4-0.7-0.6-1.5-0.6-2.5v-1.1
		c0-1,0.2-1.9,0.6-2.6c0.4-0.7,0.9-1.3,1.6-1.6c0.7-0.4,1.6-0.6,2.5-0.6c0.9,0,1.7,0.2,2.4,0.6s1.2,1,1.5,1.8
		c0.3,0.8,0.5,1.8,0.5,2.9v0.7h-7.6V228h5.5c-0.1-0.8-0.3-1.5-0.7-1.9c-0.4-0.5-1-0.7-1.6-0.7c-0.8,0-1.5,0.2-1.9,0.7
		c-0.5,0.5-0.7,1.2-0.7,2.1v1.3c0,0.8,0.2,1.5,0.7,1.9c0.5,0.5,1.2,0.7,2.1,0.7c0.4,0,0.9-0.1,1.3-0.2c0.4-0.2,0.8-0.4,1.2-0.7
		l1.4,1.3c-0.6,0.5-1.2,0.9-1.9,1.1c-0.7,0.3-1.4,0.4-2.1,0.4C295.5,234,294.9,234,294.9,234z"/>
	<path fill="#883F39" d="M309.9,223.7h2.3l-4.2,10.2h-1.7l-4.2-10.2h2.3l2.7,7.3L309.9,223.7z"/>
	<path fill="#883F39" d="M317.2,234c0,0-0.4-0.2-1.1-0.5c-0.7-0.4-1.3-0.9-1.7-1.6c-0.4-0.7-0.6-1.5-0.6-2.5v-1.1
		c0-1,0.2-1.9,0.6-2.6c0.4-0.7,0.9-1.3,1.6-1.6c0.7-0.4,1.6-0.6,2.5-0.6c0.9,0,1.7,0.2,2.4,0.6s1.2,1,1.5,1.8
		c0.3,0.8,0.5,1.8,0.5,2.9v0.7h-7.6V228h5.5c-0.1-0.8-0.3-1.5-0.7-1.9c-0.4-0.5-1-0.7-1.6-0.7c-0.8,0-1.5,0.2-1.9,0.7
		c-0.5,0.5-0.7,1.2-0.7,2.1v1.3c0,0.8,0.2,1.5,0.7,1.9c0.5,0.5,1.2,0.7,2.1,0.7c0.4,0,0.9-0.1,1.3-0.2c0.4-0.2,0.8-0.4,1.2-0.7
		l1.4,1.3c-0.6,0.5-1.2,0.9-1.9,1.1c-0.7,0.3-1.4,0.4-2.1,0.4C317.7,234,317.2,234,317.2,234z"/>
	<path fill="#883F39" d="M328.2,231.2c0,0.2,0.1,0.4,0.2,0.6c0.1,0.1,0.3,0.2,0.5,0.2h1v1.9h-1.3c-0.8,0-1.5-0.2-1.9-0.7
		c-0.5-0.5-0.7-1.1-0.7-2v-11.6h2.2V231.2z"/>
	<path fill="#883F39" d="M334.2,233.5c-0.7-0.3-1.2-0.9-1.6-1.5s-0.5-1.5-0.5-2.4v-1.7c0-0.9,0.2-1.7,0.5-2.4
		c0.4-0.7,0.9-1.2,1.6-1.5c0.7-0.3,1.5-0.5,2.5-0.5c1,0,1.8,0.2,2.5,0.5s1.2,0.8,1.6,1.5c0.4,0.7,0.5,1.4,0.5,2.4v1.7
		c0,0.9-0.2,1.7-0.5,2.4s-0.9,1.2-1.6,1.5s-1.5,0.5-2.5,0.5C335.8,234,334.9,233.8,334.2,233.5z M338.5,231.5
		c0.4-0.4,0.6-1.1,0.6-1.8v-1.7c0-0.8-0.2-1.4-0.6-1.8c-0.4-0.4-1-0.6-1.8-0.6c-0.8,0-1.4,0.2-1.8,0.6c-0.4,0.4-0.6,1-0.6,1.8v1.7
		c0,0.8,0.2,1.4,0.6,1.8c0.4,0.4,1,0.7,1.8,0.7C337.5,232.1,338.1,231.9,338.5,231.5z"/>
	<path fill="#883F39" d="M344.5,223.7h2.2V238h-2.2V223.7z M347.7,233.6c-0.5-0.3-0.9-0.7-1.1-1.3l0.2-2.1c0,0.4,0.1,0.8,0.3,1.1
		c0.2,0.3,0.4,0.5,0.8,0.7c0.3,0.2,0.7,0.2,1.2,0.2c0.7,0,1.3-0.2,1.7-0.6c0.4-0.4,0.6-1,0.6-1.7v-2.2c0-0.7-0.2-1.3-0.6-1.7
		c-0.4-0.4-1-0.6-1.7-0.6c-0.5,0-0.9,0.1-1.2,0.2c-0.3,0.2-0.6,0.4-0.8,0.7c-0.2,0.3-0.3,0.7-0.3,1.1l-0.2-2
		c0.3-0.6,0.8-1.1,1.3-1.4c0.5-0.3,1.2-0.5,1.8-0.5c0.8,0,1.5,0.2,2,0.5c0.6,0.3,1,0.8,1.3,1.4c0.3,0.6,0.4,1.4,0.4,2.2v2.2
		c0,0.9-0.2,1.6-0.5,2.2c-0.3,0.6-0.7,1.1-1.3,1.4c-0.6,0.3-1.3,0.5-2.1,0.5C348.8,234,348.2,233.9,347.7,233.6z"/>
	<path fill="#883F39" d="M356.5,223.7h2.2v10.2h-2.2V223.7z M363.2,227.7c0-0.7-0.2-1.3-0.6-1.7c-0.4-0.4-0.9-0.6-1.7-0.6
		c-0.7,0-1.3,0.2-1.7,0.5s-0.6,0.8-0.6,1.5l-0.2-2c0.3-0.6,0.8-1.1,1.4-1.4c0.6-0.3,1.2-0.5,1.9-0.5c0.8,0,1.5,0.2,2,0.5
		c0.6,0.3,1,0.8,1.3,1.4c0.3,0.6,0.4,1.4,0.4,2.2v6.2h-2.2V227.7z M369.9,227.7c0-0.7-0.2-1.3-0.6-1.7c-0.4-0.4-1-0.6-1.7-0.6
		c-0.7,0-1.2,0.2-1.6,0.6c-0.4,0.4-0.6,0.9-0.6,1.6l-0.4-2c0.4-0.7,0.8-1.2,1.4-1.6c0.6-0.4,1.2-0.6,1.9-0.6c0.8,0,1.5,0.2,2.1,0.5
		c0.6,0.3,1,0.8,1.3,1.4c0.3,0.6,0.4,1.4,0.4,2.2v6.2h-2.2V227.7z"/>
	<path fill="#883F39" d="M378.5,234c0,0-0.4-0.2-1.1-0.5c-0.7-0.4-1.3-0.9-1.7-1.6c-0.4-0.7-0.6-1.5-0.6-2.5v-1.1
		c0-1,0.2-1.9,0.6-2.6c0.4-0.7,0.9-1.3,1.6-1.6c0.7-0.4,1.6-0.6,2.5-0.6c0.9,0,1.7,0.2,2.4,0.6s1.2,1,1.5,1.8
		c0.3,0.8,0.5,1.8,0.5,2.9v0.7h-7.6V228h5.5c-0.1-0.8-0.3-1.5-0.7-1.9c-0.4-0.5-1-0.7-1.6-0.7c-0.8,0-1.5,0.2-1.9,0.7
		c-0.5,0.5-0.7,1.2-0.7,2.1v1.3c0,0.8,0.2,1.5,0.7,1.9c0.5,0.5,1.2,0.7,2.1,0.7c0.4,0,0.9-0.1,1.3-0.2c0.4-0.2,0.8-0.4,1.2-0.7
		l1.4,1.3c-0.6,0.5-1.2,0.9-1.9,1.1c-0.7,0.3-1.4,0.4-2.1,0.4C379,234,378.5,234,378.5,234z"/>
	<path fill="#883F39" d="M387.3,223.7h2.2v10.2h-2.2V223.7z M394.1,227.7c0-0.7-0.2-1.3-0.6-1.7c-0.4-0.4-1-0.6-1.7-0.6
		c-0.7,0-1.3,0.2-1.7,0.5s-0.6,0.8-0.6,1.5l-0.2-2c0.3-0.6,0.8-1.1,1.4-1.4c0.6-0.3,1.2-0.5,1.9-0.5c1.2,0,2.2,0.4,2.8,1.1
		c0.7,0.7,1,1.7,1,3.1v6.2h-2.2V227.7z"/>
	<path fill="#883F39" d="M398.8,223.7h5.1v1.8h-5.1V223.7z M400.6,233.2c-0.4-0.5-0.6-1.1-0.6-2v-10.5h2.2v10.5
		c0,0.2,0.1,0.4,0.2,0.6c0.1,0.1,0.3,0.2,0.5,0.2h1.1v1.9h-1.3C401.7,233.9,401,233.7,400.6,233.2z"/>
</g>
</svg>
